<svg width="584" height="584" viewBox="0 0 584 584" fill="none" xmlns="http://www.w3.org/2000/svg">
<g opacity="0.86">
<path d="M113.119 235.788C107.476 240.707 104.46 243.919 103.495 251.287C103.299 252.786 103.23 257.623 102.583 260.712C102.108 262.976 101.791 264.379 100.424 267.306C100.298 267.575 100.895 268.173 101.916 268.106C103.237 265.61 103.562 263.601 105.706 262.4C112.489 261.218 118.02 260.399 123.087 251.162C125.835 246.151 126.417 240.179 127.885 236.089C130.944 228.6 133.656 226.975 136.672 224.191C135.266 223.452 122.878 228.414 113.119 235.788Z" fill="url(#paint0_linear_40_14)"/>
<path d="M98.5131 233.377C102.276 239.848 104.099 243.859 102.645 251.146C102.349 252.629 100.86 257.231 100.48 260.365C100.201 262.661 100.051 264.091 100.405 267.303C100.437 267.598 99.6801 267.972 98.735 267.581C98.2862 264.793 98.6239 262.786 96.9799 260.959C90.9359 257.66 85.9618 255.106 84.1328 244.732C83.1405 239.103 84.5085 233.261 84.4333 228.917C83.9432 220.841 81.8974 218.43 79.9367 214.825C81.505 214.577 91.641 223.257 98.5131 233.377Z" fill="url(#paint1_linear_40_14)"/>
<path d="M128.138 201.022C121.622 204.706 118.023 207.247 115.597 214.271C115.103 215.7 114.064 220.425 112.809 223.321C111.89 225.443 111.298 226.754 109.37 229.347C109.193 229.585 109.657 230.291 110.671 230.43C112.466 228.251 113.189 226.348 115.53 225.602C122.413 225.807 127.996 226.115 134.814 218.085C138.513 213.728 140.283 207.995 142.543 204.283C147.044 197.561 150.028 196.514 153.541 194.393C152.312 193.387 139.18 195.759 128.138 201.022Z" fill="url(#paint2_linear_40_14)"/>
<path d="M114.314 195.726C116.7 202.821 117.68 207.117 114.791 213.964C114.204 215.356 111.821 219.566 110.819 222.559C110.084 224.752 109.65 226.123 109.351 229.341C109.324 229.636 108.507 229.851 107.66 229.277C107.78 226.456 108.514 224.558 107.271 222.438C102.013 217.992 97.653 214.491 97.9456 203.96C98.1043 198.247 100.618 192.799 101.417 188.528C102.559 180.519 101.04 177.746 99.8433 173.821C101.429 173.893 109.615 184.433 114.314 195.726Z" fill="url(#paint3_linear_40_14)"/>
<path d="M149.808 169.87C142.678 172.151 138.637 173.905 134.831 180.288C134.057 181.586 132.077 186 130.259 188.58C128.927 190.471 128.08 191.633 125.664 193.779C125.443 193.976 125.754 194.762 126.717 195.105C128.919 193.337 130.014 191.621 132.458 191.367C139.155 192.97 144.558 194.409 152.869 187.936C157.378 184.424 160.279 179.171 163.247 175.998C169.023 170.334 172.157 169.916 176.029 168.554C175.031 167.319 161.691 166.967 149.808 169.87Z" fill="url(#paint4_linear_40_14)"/>
<path d="M137.354 161.869C138.245 169.302 138.329 173.707 134.107 179.822C133.248 181.065 130.057 184.702 128.467 187.428C127.301 189.426 126.597 190.679 125.649 193.768C125.562 194.052 124.719 194.096 124.006 193.362C124.698 190.624 125.804 188.915 125.018 186.587C120.776 181.163 117.221 176.847 119.652 166.597C120.971 161.036 124.542 156.214 126.194 152.196C128.943 144.587 128.02 141.563 127.648 137.476C129.187 137.87 135.054 149.855 137.354 161.869Z" fill="url(#paint5_linear_40_14)"/>
<path d="M177.374 143.9C169.931 144.701 165.62 145.608 160.61 151.096C159.591 152.213 156.764 156.139 154.465 158.301C152.78 159.885 151.717 160.854 148.919 162.471C148.663 162.619 148.81 163.451 149.685 163.981C152.197 162.691 153.614 161.23 156.059 161.473C162.297 164.388 167.301 166.883 176.743 162.212C181.866 159.677 185.763 155.115 189.308 152.602C196.104 148.214 199.258 148.434 203.324 147.878C202.595 146.468 189.598 143.443 177.374 143.9Z" fill="url(#paint6_linear_40_14)"/>
<path d="M166.782 133.562C166.162 141.022 165.359 145.354 159.995 150.496C158.904 151.542 155.047 154.462 152.941 156.814C151.398 158.536 150.456 159.623 148.907 162.459C148.765 162.719 147.93 162.592 147.379 161.73C148.608 159.188 150.034 157.736 149.732 155.297C146.666 149.131 144.05 144.19 148.491 134.637C150.9 129.454 155.367 125.448 157.793 121.843C162.015 114.942 161.718 111.794 162.175 107.715C163.603 108.41 166.942 121.33 166.782 133.562Z" fill="url(#paint7_linear_40_14)"/>
<path d="M209.148 123.573C201.695 122.873 197.29 122.901 191.285 127.279C190.064 128.169 186.511 131.452 183.826 133.112C181.859 134.328 180.623 135.065 177.56 136.091C177.278 136.186 177.256 137.03 178.008 137.724C180.727 136.961 182.407 135.813 184.755 136.538C190.286 140.64 194.691 144.084 204.876 141.39C210.401 139.929 215.13 136.236 219.105 134.481C226.64 131.538 229.687 132.383 233.783 132.65C233.349 131.123 221.217 125.564 209.148 123.573Z" fill="url(#paint8_linear_40_14)"/>
<path d="M200.831 111.327C198.734 118.513 197.084 122.598 190.801 126.566C189.523 127.373 185.161 129.465 182.628 131.349C180.772 132.729 179.632 133.606 177.549 136.075C177.358 136.302 176.564 136.011 176.197 135.057C177.908 132.81 179.595 131.672 179.786 129.222C178.012 122.569 176.435 117.204 182.693 108.73C186.088 104.132 191.265 101.098 194.361 98.05C199.876 92.1304 200.213 88.9865 201.475 85.0813C202.735 86.0472 203.429 99.3738 200.831 111.327Z" fill="url(#paint9_linear_40_14)"/>
<path d="M244.693 110.502C237.533 108.318 233.211 107.461 226.449 110.543C225.074 111.17 220.934 113.673 217.97 114.759C215.799 115.556 214.441 116.029 211.233 116.419C210.939 116.455 210.748 117.278 211.345 118.108C214.162 117.907 216.038 117.12 218.192 118.302C222.786 123.432 226.41 127.69 236.928 127.098C242.634 126.776 248.009 124.109 252.255 123.188C260.228 121.819 263.043 123.259 267.001 124.343C266.884 122.76 256.116 114.877 244.693 110.502Z" fill="url(#paint10_linear_40_14)"/>
<path d="M239.004 96.834C235.507 103.452 233.069 107.122 226.117 109.747C224.703 110.281 220.01 111.454 217.15 112.791C215.055 113.77 213.762 114.4 211.225 116.401C210.992 116.584 210.273 116.14 210.105 115.131C212.232 113.274 214.114 112.498 214.793 110.136C214.392 103.262 213.925 97.6904 221.758 90.646C226.008 86.8243 231.688 84.8918 235.334 82.528C241.925 77.8369 242.887 74.8249 244.908 71.2528C245.948 72.4521 243.951 85.6465 239.004 96.834Z" fill="url(#paint11_linear_40_14)"/>
<path d="M282.202 104.741C275.637 101.145 271.58 99.4259 264.333 101.066C262.858 101.4 258.295 103.006 255.173 103.467C252.885 103.804 251.458 103.991 248.239 103.719C247.943 103.694 247.588 104.461 248.004 105.396C250.802 105.773 252.8 105.384 254.668 106.981C258.121 112.938 260.802 117.845 271.22 119.408C276.872 120.255 282.677 118.738 287.022 118.702C295.107 118.985 297.57 120.968 301.224 122.836C301.431 121.262 292.494 111.351 282.202 104.741Z" fill="url(#paint12_linear_40_14)"/>
<path d="M279.418 90.2023C274.646 95.9695 271.511 99.0659 264.171 100.22C262.677 100.454 257.844 100.648 254.772 101.374C252.521 101.906 251.127 102.259 248.235 103.701C247.97 103.833 247.357 103.252 247.397 102.23C249.859 100.845 251.859 100.468 253.005 98.2946C254.012 91.4829 254.69 85.9327 263.793 80.6314C268.732 77.7553 274.687 77.0202 278.738 75.4486C286.146 72.1982 287.702 69.4453 290.408 66.3596C291.182 67.7458 286.539 80.2568 279.418 90.2023Z" fill="url(#paint13_linear_40_14)"/>
<path d="M320.016 106.822C314.307 101.98 310.678 99.4812 303.249 99.6318C301.738 99.6625 296.945 100.32 293.793 100.143C291.484 100.014 290.05 99.9107 286.95 98.9978C286.666 98.914 286.164 99.5937 286.383 100.593C289.049 101.525 291.084 101.545 292.593 103.484C294.779 110.014 296.419 115.359 306.311 118.983C311.677 120.949 317.669 120.629 321.933 121.466C329.796 123.368 331.81 125.806 335.015 128.369C335.534 126.869 328.77 115.365 320.016 106.822Z" fill="url(#paint14_linear_40_14)"/>
<path d="M320.21 92.0198C314.376 96.7107 310.684 99.1144 303.261 98.77C301.751 98.6999 296.977 97.9179 293.822 98.012C291.51 98.0809 290.073 98.1468 286.951 98.9785C286.665 99.0549 286.181 98.3623 286.426 97.3691C289.115 96.5073 291.15 96.5401 292.71 94.6408C295.065 88.1704 296.844 82.8695 306.827 79.5052C312.243 77.68 318.224 78.1563 322.508 77.4304C330.418 75.7347 332.495 73.3504 335.766 70.8712C336.246 72.3847 329.184 83.7078 320.21 92.0198Z" fill="url(#paint15_linear_40_14)"/>
<path d="M356.455 116.311C351.817 110.435 348.756 107.267 341.443 105.943C339.956 105.674 335.128 105.37 332.074 104.573C329.836 103.989 328.45 103.604 325.593 102.095C325.33 101.957 324.704 102.524 324.721 103.547C327.15 104.988 329.141 105.41 330.236 107.61C331.086 114.443 331.635 120.008 340.614 125.518C345.485 128.507 351.421 129.38 355.435 131.045C362.766 134.465 364.257 137.253 366.891 140.401C367.697 139.033 363.345 126.418 356.455 116.311Z" fill="url(#paint16_linear_40_14)"/>
<path d="M359.576 101.84C352.929 105.284 348.834 106.909 341.626 105.102C340.16 104.734 335.635 103.022 332.524 102.49C330.244 102.1 328.823 101.88 325.598 102.077C325.302 102.095 324.965 101.321 325.402 100.396C328.208 100.083 330.197 100.518 332.101 98.9652C335.691 93.0891 338.484 88.2453 348.935 86.9239C354.605 86.2071 360.374 87.8581 364.717 87.9947C372.806 87.8985 375.314 85.9726 379.011 84.1899C379.182 85.7684 370.018 95.4695 359.576 101.84Z" fill="url(#paint17_linear_40_14)"/>
<path d="M390.448 133.006C387.085 126.318 384.722 122.6 377.825 119.834C376.422 119.272 371.753 118.004 368.921 116.609C366.846 115.588 365.566 114.932 363.07 112.88C362.841 112.692 362.114 113.122 361.925 114.127C364.014 116.027 365.88 116.841 366.511 119.216C365.971 126.08 365.391 131.641 373.079 138.843C377.251 142.75 382.891 144.797 386.488 147.235C392.982 152.058 393.883 155.089 395.831 158.702C396.896 157.524 395.166 144.291 390.448 133.006Z" fill="url(#paint18_linear_40_14)"/>
<path d="M396.412 119.457C389.209 121.495 384.871 122.264 378.173 119.046C376.811 118.391 372.722 115.806 369.782 114.659C367.627 113.819 366.279 113.318 363.08 112.863C362.786 112.821 362.611 111.995 363.225 111.176C366.037 111.434 367.898 112.26 370.075 111.121C374.772 106.086 378.482 101.902 388.985 102.707C394.684 103.144 400.003 105.92 404.23 106.927C412.174 108.458 415.018 107.075 418.997 106.071C418.847 107.652 407.922 115.314 396.412 119.457Z" fill="url(#paint19_linear_40_14)"/>
<path d="M420.505 156.169C418.574 148.937 417.019 144.815 410.829 140.703C409.57 139.866 405.258 137.674 402.769 135.732C400.946 134.309 399.826 133.407 397.8 130.89C397.614 130.658 396.815 130.931 396.425 131.877C398.084 134.162 399.744 135.339 399.879 137.793C397.951 144.403 396.251 149.73 402.312 158.347C405.6 163.021 410.705 166.175 413.73 169.293C419.106 175.339 419.371 178.49 420.542 182.423C421.824 181.486 422.826 168.179 420.505 156.169Z" fill="url(#paint20_linear_40_14)"/>
<path d="M429.103 144.119C421.636 144.647 417.232 144.517 411.33 140.001C410.13 139.083 406.653 135.719 404.008 133.997C402.069 132.736 400.851 131.971 397.812 130.874C397.533 130.773 397.531 129.929 398.298 129.252C400.999 130.078 402.652 131.265 405.016 130.594C410.64 126.621 415.124 123.28 425.243 126.208C430.734 127.796 435.376 131.597 439.309 133.444C446.775 136.56 449.84 135.786 453.941 135.614C453.472 137.131 441.215 142.407 429.103 144.119Z" fill="url(#paint21_linear_40_14)"/>
<path d="M445.103 184.968C444.665 177.496 443.969 173.145 438.732 167.873C437.667 166.801 433.883 163.787 431.835 161.385C430.335 159.625 429.419 158.515 427.94 155.643C427.804 155.379 426.966 155.485 426.395 156.333C427.561 158.906 428.951 160.392 428.589 162.823C425.373 168.911 422.637 173.788 426.843 183.446C429.125 188.686 433.493 192.801 435.83 196.464C439.882 203.466 439.508 206.606 439.865 210.694C441.309 210.034 444.964 197.2 445.103 184.968Z" fill="url(#paint22_linear_40_14)"/>
<path d="M455.946 174.891C448.525 173.908 444.238 172.896 439.363 167.287C438.372 166.146 435.642 162.152 433.396 159.934C431.751 158.309 430.711 157.315 427.954 155.63C427.701 155.475 427.868 154.647 428.756 154.139C431.236 155.49 432.617 156.985 435.068 156.802C441.375 154.04 446.439 151.668 455.764 156.569C460.823 159.228 464.607 163.885 468.089 166.483C474.776 171.036 477.935 170.893 481.986 171.549C481.222 172.941 468.155 175.647 455.946 174.891Z" fill="url(#paint23_linear_40_14)"/>
<path d="M463.857 217.694C464.92 210.284 465.106 205.883 461.026 199.672C460.196 198.409 457.09 194.7 455.563 191.937C454.444 189.913 453.768 188.643 452.893 185.533C452.812 185.248 451.97 185.185 451.24 185.902C451.87 188.655 452.935 190.389 452.096 192.699C447.729 198.023 444.075 202.255 446.269 212.559C447.459 218.149 450.918 223.052 452.477 227.108C455.05 234.778 454.057 237.78 453.591 241.857C455.138 241.499 461.28 229.652 463.857 217.694Z" fill="url(#paint24_linear_40_14)"/>
<path d="M476.495 209.984C469.419 207.54 465.42 205.692 461.763 199.223C461.019 197.908 459.141 193.449 457.383 190.827C456.095 188.907 455.275 187.725 452.91 185.524C452.693 185.322 453.022 184.544 453.993 184.223C456.154 186.041 457.209 187.782 459.646 188.092C466.378 186.644 471.813 185.331 479.972 191.994C484.399 195.609 487.178 200.928 490.071 204.169C495.715 209.965 498.839 210.455 502.678 211.906C501.652 213.117 488.307 213.161 476.495 209.984Z" fill="url(#paint25_linear_40_14)"/>
<path d="M475.183 253.832C477.712 246.787 478.779 242.512 476.03 235.608C475.471 234.204 473.173 229.947 472.232 226.934C471.543 224.727 471.136 223.347 470.903 220.124C470.881 219.829 470.069 219.597 469.21 220.153C469.273 222.976 469.969 224.889 468.683 226.983C463.336 231.322 458.906 234.734 458.985 245.268C459.028 250.983 461.431 256.481 462.143 260.767C463.122 268.798 461.547 271.539 460.271 275.44C461.858 275.4 470.256 265.028 475.183 253.832Z" fill="url(#paint26_linear_40_14)"/>
<path d="M489.109 248.818C482.669 245.002 479.122 242.389 476.839 235.317C476.375 233.879 475.431 229.134 474.236 226.213C473.36 224.072 472.794 222.75 470.919 220.119C470.747 219.877 471.226 219.181 472.242 219.062C473.993 221.277 474.676 223.195 477.002 223.988C483.887 223.922 489.475 223.727 496.13 231.894C499.74 236.325 501.393 242.093 503.577 245.849C507.941 252.661 510.903 253.769 514.372 255.961C513.124 256.942 500.042 254.304 489.109 248.818Z" fill="url(#paint27_linear_40_14)"/>
<path d="M479.109 291.578C483.021 285.195 484.936 281.227 483.651 273.908C483.389 272.42 482.007 267.784 481.699 264.642C481.474 262.34 481.356 260.907 481.784 257.704C481.824 257.41 481.075 257.019 480.121 257.388C479.608 260.165 479.9 262.179 478.214 263.967C472.095 267.126 467.063 269.564 464.995 279.894C463.873 285.498 465.106 291.37 464.93 295.711C464.254 303.773 462.153 306.136 460.109 309.695C461.671 309.979 472.005 301.536 479.109 291.578Z" fill="url(#paint28_linear_40_14)"/>
<path d="M493.766 289.505C488.238 284.458 485.298 281.177 484.503 273.788C484.342 272.286 484.384 267.448 483.809 264.344C483.387 262.07 483.102 260.661 481.803 257.702C481.684 257.431 482.294 256.847 483.313 256.937C484.576 259.463 484.855 261.479 486.97 262.73C493.725 264.068 499.235 265.015 504.087 274.366C506.719 279.439 507.163 285.423 508.535 289.545C511.421 297.103 514.095 298.791 517.045 301.644C515.623 302.35 503.353 297.103 493.766 289.505Z" fill="url(#paint29_linear_40_14)"/>
<path d="M474.785 329.74C480.057 324.425 482.831 321.003 483.261 313.584C483.348 312.076 483.066 307.246 483.488 304.118C483.797 301.826 484.012 300.404 485.164 297.385C485.27 297.108 484.631 296.555 483.618 296.695C482.481 299.28 482.302 301.308 480.251 302.661C473.571 304.331 468.113 305.549 463.729 315.128C461.351 320.325 461.203 326.323 460.035 330.508C457.526 338.199 454.939 340.017 452.133 343.012C453.588 343.647 465.585 337.801 474.785 329.74Z" fill="url(#paint30_linear_40_14)"/>
<path d="M489.526 331.087C485.304 324.905 483.196 321.037 484.118 313.663C484.306 312.163 485.458 307.465 485.61 304.312C485.722 302.002 485.768 300.564 485.182 297.387C485.129 297.095 485.857 296.667 486.828 296.989C487.477 299.737 487.286 301.763 489.058 303.466C495.325 306.319 500.471 308.505 503.046 318.72C504.443 324.262 503.502 330.188 503.892 334.516C504.965 342.534 507.18 344.791 509.397 348.245C507.851 348.605 497.113 340.682 489.526 331.087Z" fill="url(#paint31_linear_40_14)"/>
<path d="M464.362 364.876C470.448 360.518 473.756 357.608 475.42 350.366C475.758 348.893 476.288 344.084 477.227 341.071C477.915 338.862 478.365 337.496 480.005 334.713C480.156 334.457 479.619 333.805 478.596 333.774C477.043 336.133 476.528 338.102 474.279 339.093C467.414 339.622 461.83 339.911 455.906 348.622C452.692 353.348 451.543 359.237 449.692 363.168C445.932 370.331 443.077 371.691 439.81 374.174C441.139 375.044 453.944 371.286 464.362 364.876Z" fill="url(#paint32_linear_40_14)"/>
<path d="M478.672 368.668C475.543 361.868 474.111 357.701 476.254 350.586C476.689 349.138 478.611 344.699 479.288 341.616C479.784 339.357 480.07 337.947 480.024 334.717C480.02 334.42 480.81 334.119 481.713 334.599C481.894 337.417 481.366 339.383 482.829 341.358C488.53 345.218 493.238 348.235 494.07 358.737C494.52 364.434 492.601 370.12 492.262 374.451C491.98 382.536 493.786 385.131 495.394 388.907C493.809 389.004 484.547 379.397 478.672 368.668Z" fill="url(#paint33_linear_40_14)"/>
<path d="M446.094 398.05C452.932 395.004 456.756 392.817 459.841 386.057C460.469 384.682 461.954 380.078 463.479 377.314C464.597 375.289 465.311 374.041 467.478 371.644C467.677 371.424 467.281 370.677 466.286 370.441C464.291 372.44 463.39 374.265 460.988 374.785C454.157 373.924 448.629 373.085 441.075 380.428C436.977 384.412 434.669 389.95 432.066 393.429C426.944 399.691 423.874 400.449 420.174 402.226C421.301 403.345 434.6 402.236 446.094 398.05Z" fill="url(#paint34_linear_40_14)"/>
<path d="M459.35 404.64C457.651 397.349 457.085 392.98 460.614 386.44C461.331 385.11 464.105 381.146 465.388 378.262C466.328 376.149 466.892 374.826 467.495 371.652C467.551 371.36 468.385 371.225 469.174 371.876C468.784 374.673 467.873 376.493 468.908 378.721C473.718 383.648 477.724 387.549 476.429 398.004C475.726 403.676 472.704 408.86 471.501 413.035C469.6 420.898 470.849 423.804 471.665 427.825C470.093 427.602 462.95 416.33 459.35 404.64Z" fill="url(#paint35_linear_40_14)"/>
<path d="M421.551 426.993C428.866 425.404 433.056 424.042 437.453 418.052C438.347 416.833 440.739 412.628 442.795 410.233C444.302 408.478 445.256 407.402 447.865 405.496C448.104 405.321 447.87 404.51 446.943 404.076C444.583 405.626 443.329 407.23 440.872 407.249C434.359 405.015 429.118 403.067 420.227 408.719C415.403 411.784 412.015 416.736 408.758 419.612C402.468 424.7 399.308 424.817 395.324 425.803C396.2 427.127 409.446 428.75 421.551 426.993Z" fill="url(#paint36_linear_40_14)"/>
<path d="M433.186 436.145C433.008 428.662 433.344 424.269 438.131 418.585C439.104 417.428 442.627 414.113 444.471 411.551C445.821 409.674 446.643 408.493 447.88 405.508C447.994 405.234 448.838 405.271 449.477 406.069C448.527 408.729 447.264 410.325 447.824 412.717C451.529 418.521 454.657 423.156 451.259 433.127C449.415 438.537 445.401 442.997 443.373 446.839C439.91 454.151 440.541 457.25 440.521 461.353C439.028 460.815 434.33 448.324 433.186 436.145Z" fill="url(#paint37_linear_40_14)"/>
<path d="M391.634 450.215C399.119 450.127 403.498 449.635 409.008 444.65C410.129 443.637 413.317 439.998 415.813 438.065C417.641 436.648 418.792 435.786 421.73 434.443C422 434.319 421.933 433.477 421.113 432.866C418.489 433.911 416.939 435.23 414.528 434.755C408.596 431.258 403.853 428.297 394.009 432.047C388.668 434.081 384.353 438.251 380.585 440.414C373.401 444.134 370.282 443.614 366.182 443.78C366.773 445.253 379.423 449.504 391.634 450.215Z" fill="url(#paint38_linear_40_14)"/>
<path d="M401.193 461.519C402.522 454.152 403.734 449.916 409.565 445.309C410.751 444.372 414.868 441.832 417.189 439.693C418.889 438.125 419.931 437.133 421.743 434.458C421.909 434.213 422.728 434.418 423.195 435.329C421.729 437.743 420.171 439.052 420.239 441.509C422.703 447.939 424.835 453.107 419.504 462.193C416.611 467.122 411.782 470.685 409.024 474.041C404.163 480.508 404.158 483.67 403.314 487.686C401.959 486.859 399.867 473.679 401.193 461.519Z" fill="url(#paint39_linear_40_14)"/>
<path d="M358.068 467.42C365.42 468.828 369.808 469.22 376.203 465.435C377.504 464.665 381.354 461.736 384.185 460.339C386.259 459.316 387.559 458.701 390.706 457.971C390.995 457.904 391.098 457.066 390.416 456.303C387.636 456.803 385.854 457.786 383.586 456.84C378.472 452.229 374.415 448.382 364.02 450.091C358.381 451.019 353.321 454.244 349.197 455.611C341.415 457.823 338.463 456.691 334.412 456.035C334.697 457.596 346.244 464.286 358.068 467.42Z" fill="url(#paint40_linear_40_14)"/>
<path d="M365.179 480.404C367.952 473.451 369.985 469.542 376.617 466.192C377.966 465.51 382.508 463.843 385.209 462.21C387.188 461.013 388.406 460.249 390.716 457.989C390.928 457.782 391.69 458.147 391.965 459.132C390.047 461.205 388.259 462.178 387.835 464.598C388.966 471.39 390.024 476.881 382.987 484.72C379.168 488.972 373.726 491.499 370.353 494.238C364.299 499.605 363.664 502.702 362.035 506.469C360.873 505.387 361.453 492.055 365.179 480.404Z" fill="url(#paint41_linear_40_14)"/>
<path d="M321.438 477.041C328.357 479.898 332.577 481.163 339.602 478.74C341.031 478.247 345.391 476.151 348.445 475.352C350.682 474.766 352.079 474.425 355.309 474.342C355.606 474.335 355.875 473.534 355.36 472.65C352.536 472.581 350.593 473.187 348.562 471.804C344.478 466.26 341.277 461.675 330.75 461.262C325.039 461.037 319.435 463.18 315.12 463.692C307.053 464.294 304.388 462.592 300.551 461.136C300.517 462.723 310.484 471.596 321.438 477.041Z" fill="url(#paint42_linear_40_14)"/>
<path d="M325.795 491.188C329.907 484.934 332.684 481.513 339.855 479.563C341.313 479.167 346.097 478.446 349.071 477.388C351.25 476.613 352.597 476.11 355.314 474.36C355.563 474.2 356.236 474.71 356.307 475.731C354.012 477.376 352.065 477.97 351.164 480.256C350.908 487.137 350.841 492.728 342.372 498.993C337.777 502.392 331.938 503.774 328.084 505.779C321.075 509.82 319.83 512.727 317.478 516.09C316.557 514.797 319.804 501.853 325.795 491.188Z" fill="url(#paint43_linear_40_14)"/>
<path d="M283.551 479.198C289.743 483.404 293.617 485.502 300.988 484.561C302.487 484.37 307.183 483.205 310.335 483.045C312.645 482.927 314.083 482.877 317.262 483.455C317.553 483.508 317.98 482.778 317.656 481.808C314.906 481.166 312.88 481.363 311.172 479.595C308.304 473.336 306.103 468.195 295.882 465.646C290.336 464.263 284.413 465.22 280.084 464.842C272.063 463.789 269.801 461.58 266.341 459.372C265.985 460.919 273.936 471.637 283.551 479.198Z" fill="url(#paint44_linear_40_14)"/>
<path d="M284.937 493.937C290.238 488.651 293.653 485.868 301.07 485.42C302.579 485.328 307.409 485.597 310.536 485.167C312.827 484.853 314.249 484.634 317.265 483.474C317.542 483.368 318.096 484.005 317.959 485.019C315.376 486.162 313.349 486.346 312.001 488.401C310.349 495.085 309.145 500.546 299.577 504.955C294.387 507.347 288.389 507.51 284.206 508.688C276.522 511.217 274.711 513.809 271.723 516.623C271.085 515.169 276.899 503.158 284.937 493.937Z" fill="url(#paint45_linear_40_14)"/>
<path d="M246.107 473.52C251.329 478.884 254.702 481.717 262.112 482.276C263.619 482.39 268.453 482.193 271.573 482.669C273.859 483.018 275.278 483.257 278.276 484.462C278.551 484.572 279.115 483.944 278.992 482.928C276.428 481.746 274.404 481.532 273.086 479.458C271.533 472.749 270.411 467.272 260.91 462.721C255.755 460.252 249.76 459.999 245.596 458.759C237.95 456.116 236.177 453.498 233.232 450.64C232.572 452.084 238.208 464.18 246.107 473.52Z" fill="url(#paint46_linear_40_14)"/>
<path d="M244.502 488.236C250.757 484.122 254.661 482.082 262.018 483.133C263.514 483.346 268.192 484.58 271.341 484.787C273.649 484.939 275.086 485.011 278.273 484.481C278.565 484.432 278.981 485.168 278.642 486.133C275.883 486.734 273.86 486.508 272.127 488.249C269.165 494.466 266.889 499.573 256.631 501.97C251.065 503.27 245.157 502.225 240.823 502.539C232.787 503.473 230.492 505.648 227 507.804C226.667 506.252 234.776 495.654 244.502 488.236Z" fill="url(#paint47_linear_40_14)"/>
<path d="M210.74 460.6C214.796 466.892 217.541 470.337 224.694 472.352C226.149 472.761 230.926 473.525 233.89 474.61C236.062 475.404 237.405 475.92 240.105 477.694C240.353 477.857 241.031 477.352 241.112 476.333C238.831 474.666 236.89 474.056 236.009 471.761C235.815 464.878 235.799 459.287 227.387 452.946C222.823 449.505 216.997 448.071 213.161 446.031C206.189 441.926 204.97 439.009 202.649 435.624C201.716 436.909 204.845 449.882 210.74 460.6Z" fill="url(#paint48_linear_40_14)"/>
<path d="M206.253 474.707C213.198 471.913 217.43 470.686 224.432 473.173C225.857 473.678 230.198 475.814 233.244 476.641C235.476 477.246 236.87 477.601 240.099 477.712C240.395 477.722 240.657 478.526 240.134 479.405C237.31 479.448 235.373 478.825 233.329 480.189C229.195 485.696 225.953 490.252 215.423 490.57C209.71 490.743 204.125 488.549 199.815 487.999C191.754 487.323 189.073 489.001 185.224 490.423C185.204 488.836 195.251 480.053 206.253 474.707Z" fill="url(#paint49_linear_40_14)"/>
<path d="M178.494 440.737C181.203 447.716 183.2 451.643 189.803 455.053C191.146 455.747 195.672 457.455 198.358 459.112C200.326 460.327 201.538 461.102 203.826 463.383C204.037 463.592 204.802 463.234 205.086 462.251C203.187 460.161 201.407 459.172 201.006 456.748C202.198 449.966 203.306 444.486 196.339 436.584C192.56 432.296 187.14 429.72 183.792 426.951C177.787 421.53 177.18 418.427 175.585 414.646C174.413 415.717 174.873 429.053 178.494 440.737Z" fill="url(#paint50_linear_40_14)"/>
<path d="M171.266 453.656C178.63 452.314 183.022 451.962 189.383 455.805C190.676 456.586 194.5 459.55 197.318 460.972C199.383 462.014 200.677 462.641 203.818 463.399C204.106 463.468 204.201 464.308 203.512 465.064C200.737 464.539 198.964 463.54 196.688 464.466C191.532 469.03 187.441 472.841 177.062 471.038C171.431 470.059 166.4 466.788 162.289 465.383C154.527 463.102 151.565 464.207 147.508 464.827C147.807 463.267 159.414 456.682 171.266 453.656Z" fill="url(#paint51_linear_40_14)"/>
<path d="M150.781 414.813C152.013 422.197 153.168 426.448 158.938 431.132C160.111 432.085 164.195 434.679 166.487 436.849C168.166 438.439 169.194 439.444 170.971 442.143C171.134 442.391 171.956 442.196 172.434 441.292C171.001 438.858 169.46 437.528 169.56 435.073C172.109 428.677 174.31 423.536 169.099 414.381C166.272 409.414 161.491 405.788 158.777 402.395C154.002 395.865 154.039 392.703 153.248 388.676C151.883 389.486 149.616 402.636 150.781 414.813Z" fill="url(#paint52_linear_40_14)"/>
<path d="M141.072 425.988C148.555 426.175 152.926 426.724 158.371 431.782C159.478 432.811 162.618 436.491 165.087 438.457C166.897 439.898 168.036 440.775 170.957 442.157C171.225 442.284 171.147 443.125 170.318 443.725C167.709 442.646 166.176 441.306 163.759 441.749C157.782 445.168 153 448.066 143.206 444.186C137.892 442.081 133.633 437.854 129.894 435.641C122.76 431.827 119.634 432.306 115.536 432.086C116.147 430.62 128.852 426.537 141.072 425.988Z" fill="url(#paint53_linear_40_14)"/>
<path d="M129.042 383.8C128.765 391.28 129.043 395.677 133.754 401.425C134.712 402.593 138.191 405.955 140 408.541C141.326 410.437 142.132 411.628 143.33 414.629C143.44 414.904 144.284 414.878 144.934 414.089C144.019 411.417 142.777 409.805 143.368 407.42C147.15 401.666 150.339 397.072 147.073 387.056C145.302 381.623 141.346 377.11 139.369 373.241C136.004 365.885 136.675 362.795 136.71 358.691C135.209 359.21 130.347 371.637 129.042 383.8Z" fill="url(#paint54_linear_40_14)"/>
<path d="M117.29 392.798C124.583 394.484 128.755 395.901 133.072 401.949C133.95 403.179 136.287 407.415 138.311 409.837C139.794 411.612 140.734 412.701 143.317 414.641C143.554 414.819 143.309 415.627 142.377 416.049C140.037 414.467 138.805 412.847 136.348 412.795C129.806 414.943 124.539 416.822 115.724 411.053C110.942 407.924 107.619 402.928 104.401 400.009C98.1783 394.839 95.0203 394.68 91.05 393.641C91.9429 392.328 105.209 390.881 117.29 392.798Z" fill="url(#paint55_linear_40_14)"/>
<path d="M113.495 349.434C111.73 356.709 111.125 361.073 114.594 367.645C115.299 368.981 118.038 372.97 119.294 375.865C120.215 377.987 120.767 379.315 121.342 382.494C121.395 382.786 122.227 382.929 123.022 382.285C122.658 379.485 121.763 377.657 122.819 375.438C127.673 370.554 131.714 366.69 130.513 356.224C129.861 350.546 126.886 345.335 125.721 341.149C123.892 333.269 125.166 330.375 126.019 326.361C124.445 326.57 117.2 337.777 113.495 349.434Z" fill="url(#paint56_linear_40_14)"/>
<path d="M100.179 355.905C106.989 359.013 110.795 361.234 113.818 368.022C114.433 369.403 115.877 374.02 117.377 376.798C118.476 378.833 119.179 380.087 121.324 382.504C121.521 382.726 121.119 383.469 120.121 383.695C118.144 381.679 117.26 379.846 114.863 379.304C108.024 380.104 102.489 380.893 95.0019 373.481C90.9402 369.461 88.6815 363.902 86.1104 360.399C81.045 354.091 77.9822 353.305 74.299 351.495C75.436 350.387 88.724 351.616 100.179 355.905Z" fill="url(#paint57_linear_40_14)"/>
<path d="M105.669 312.381C102.479 319.153 101.01 323.306 103.088 330.441C103.51 331.892 105.391 336.349 106.041 339.438C106.517 341.701 106.79 343.113 106.715 346.344C106.708 346.64 107.495 346.948 108.402 346.476C108.609 343.66 108.099 341.689 109.579 339.728C115.315 335.919 120.05 332.945 120.976 322.451C121.479 316.758 119.611 311.056 119.311 306.721C119.102 298.634 120.932 296.055 122.574 292.294C120.99 292.183 111.641 301.706 105.669 312.381Z" fill="url(#paint58_linear_40_14)"/>
<path d="M91.3258 316.044C97.3725 320.456 100.654 323.396 102.252 330.653C102.577 332.129 103.064 336.943 103.975 339.965C104.643 342.179 105.08 343.549 106.695 346.347C106.844 346.604 106.301 347.252 105.278 347.273C103.746 344.901 103.249 342.927 101.009 341.916C94.149 341.324 88.5679 340.985 82.7228 332.221C79.5517 327.466 78.4558 321.567 76.6407 317.619C72.9459 310.422 70.1035 309.037 66.859 306.524C68.1955 305.667 80.9656 309.54 91.3258 316.044Z" fill="url(#paint59_linear_40_14)"/>
<path d="M105.36 274.433C100.858 280.413 98.5733 284.18 99.1544 291.589C99.2726 293.095 100.207 297.842 100.213 300.999C100.218 303.311 100.198 304.75 99.4665 307.897C99.3993 308.185 100.107 308.647 101.092 308.37C101.867 305.655 101.77 303.622 103.618 302.003C110.01 299.442 115.252 297.495 118.296 287.41C119.947 281.938 119.28 275.975 119.869 271.67C121.311 263.71 123.628 261.558 126.002 258.21C124.474 257.779 113.382 265.198 105.36 274.433Z" fill="url(#paint60_linear_40_14)"/>
<path d="M90.5725 275.098C95.5937 280.65 98.2074 284.196 98.294 291.627C98.3116 293.138 97.8077 297.949 98.0846 301.094C98.2874 303.398 98.4365 304.828 99.4478 307.897C99.5407 308.179 98.8773 308.702 97.8716 308.515C96.8553 305.88 96.77 303.846 94.7836 302.4C88.1875 300.424 82.7923 298.955 78.8548 289.184C76.7186 283.883 76.8473 277.884 75.8743 273.649C73.7228 265.851 71.2221 263.916 68.5574 260.794C70.0405 260.227 81.7541 266.621 90.5725 275.098Z" fill="url(#paint61_linear_40_14)"/>
</g>
<defs>
<linearGradient id="paint0_linear_40_14" x1="127.917" y1="207.079" x2="92.1551" y2="288.702" gradientUnits="userSpaceOnUse">
<stop stop-color="#DECEA5"/>
<stop offset="1" stop-color="#CD9740"/>
</linearGradient>
<linearGradient id="paint1_linear_40_14" x1="99.5459" y1="202.395" x2="63.7844" y2="284.019" gradientUnits="userSpaceOnUse">
<stop stop-color="#DECEA5"/>
<stop offset="1" stop-color="#CD9740"/>
</linearGradient>
<linearGradient id="paint2_linear_40_14" x1="148.402" y1="175.871" x2="96.9714" y2="248.646" gradientUnits="userSpaceOnUse">
<stop stop-color="#DECEA5"/>
<stop offset="1" stop-color="#CD9740"/>
</linearGradient>
<linearGradient id="paint3_linear_40_14" x1="121.55" y1="165.584" x2="70.1193" y2="238.359" gradientUnits="userSpaceOnUse">
<stop stop-color="#DECEA5"/>
<stop offset="1" stop-color="#CD9740"/>
</linearGradient>
<linearGradient id="paint4_linear_40_14" x1="174.77" y1="149.374" x2="109.595" y2="210.148" gradientUnits="userSpaceOnUse">
<stop stop-color="#DECEA5"/>
<stop offset="1" stop-color="#CD9740"/>
</linearGradient>
<linearGradient id="paint5_linear_40_14" x1="150.578" y1="133.833" x2="85.4027" y2="194.607" gradientUnits="userSpaceOnUse">
<stop stop-color="#DECEA5"/>
<stop offset="1" stop-color="#CD9740"/>
</linearGradient>
<linearGradient id="paint6_linear_40_14" x1="205.945" y1="128.836" x2="129.889" y2="175.278" gradientUnits="userSpaceOnUse">
<stop stop-color="#DECEA5"/>
<stop offset="1" stop-color="#CD9740"/>
</linearGradient>
<linearGradient id="paint7_linear_40_14" x1="185.369" y1="108.753" x2="109.313" y2="155.195" gradientUnits="userSpaceOnUse">
<stop stop-color="#DECEA5"/>
<stop offset="1" stop-color="#CD9740"/>
</linearGradient>
<linearGradient id="paint8_linear_40_14" x1="240.151" y1="114.514" x2="156.356" y2="144.843" gradientUnits="userSpaceOnUse">
<stop stop-color="#DECEA5"/>
<stop offset="1" stop-color="#CD9740"/>
</linearGradient>
<linearGradient id="paint9_linear_40_14" x1="223.995" y1="90.7268" x2="140.201" y2="121.056" gradientUnits="userSpaceOnUse">
<stop stop-color="#DECEA5"/>
<stop offset="1" stop-color="#CD9740"/>
</linearGradient>
<linearGradient id="paint10_linear_40_14" x1="276.883" y1="107.856" x2="188.704" y2="120.732" gradientUnits="userSpaceOnUse">
<stop stop-color="#DECEA5"/>
<stop offset="1" stop-color="#CD9740"/>
</linearGradient>
<linearGradient id="paint11_linear_40_14" x1="265.834" y1="81.3074" x2="177.655" y2="94.1836" gradientUnits="userSpaceOnUse">
<stop stop-color="#DECEA5"/>
<stop offset="1" stop-color="#CD9740"/>
</linearGradient>
<linearGradient id="paint12_linear_40_14" x1="314.257" y1="108.707" x2="225.304" y2="103.353" gradientUnits="userSpaceOnUse">
<stop stop-color="#DECEA5"/>
<stop offset="1" stop-color="#CD9740"/>
</linearGradient>
<linearGradient id="paint13_linear_40_14" x1="308.848" y1="80.4658" x2="219.895" y2="75.1122" gradientUnits="userSpaceOnUse">
<stop stop-color="#DECEA5"/>
<stop offset="1" stop-color="#CD9740"/>
</linearGradient>
<linearGradient id="paint14_linear_40_14" x1="350.62" y1="117.147" x2="264.556" y2="94.0316" gradientUnits="userSpaceOnUse">
<stop stop-color="#DECEA5"/>
<stop offset="1" stop-color="#CD9740"/>
</linearGradient>
<linearGradient id="paint15_linear_40_14" x1="350.996" y1="88.3944" x2="264.932" y2="65.2793" gradientUnits="userSpaceOnUse">
<stop stop-color="#DECEA5"/>
<stop offset="1" stop-color="#CD9740"/>
</linearGradient>
<linearGradient id="paint16_linear_40_14" x1="384.409" y1="132.49" x2="304.625" y2="92.794" gradientUnits="userSpaceOnUse">
<stop stop-color="#DECEA5"/>
<stop offset="1" stop-color="#CD9740"/>
</linearGradient>
<linearGradient id="paint17_linear_40_14" x1="390.47" y1="104.381" x2="310.686" y2="64.6857" gradientUnits="userSpaceOnUse">
<stop stop-color="#DECEA5"/>
<stop offset="1" stop-color="#CD9740"/>
</linearGradient>
<linearGradient id="paint18_linear_40_14" x1="414.582" y1="154.471" x2="344.399" y2="99.5563" gradientUnits="userSpaceOnUse">
<stop stop-color="#DECEA5"/>
<stop offset="1" stop-color="#CD9740"/>
</linearGradient>
<linearGradient id="paint19_linear_40_14" x1="426.166" y1="128.153" x2="355.984" y2="73.2382" gradientUnits="userSpaceOnUse">
<stop stop-color="#DECEA5"/>
<stop offset="1" stop-color="#CD9740"/>
</linearGradient>
<linearGradient id="paint20_linear_40_14" x1="439.761" y1="182.1" x2="382.234" y2="114.042" gradientUnits="userSpaceOnUse">
<stop stop-color="#DECEA5"/>
<stop offset="1" stop-color="#CD9740"/>
</linearGradient>
<linearGradient id="paint21_linear_40_14" x1="456.462" y1="158.693" x2="398.936" y2="90.6345" gradientUnits="userSpaceOnUse">
<stop stop-color="#DECEA5"/>
<stop offset="1" stop-color="#CD9740"/>
</linearGradient>
<linearGradient id="paint22_linear_40_14" x1="458.757" y1="214.239" x2="416.076" y2="136.011" gradientUnits="userSpaceOnUse">
<stop stop-color="#DECEA5"/>
<stop offset="1" stop-color="#CD9740"/>
</linearGradient>
<linearGradient id="paint23_linear_40_14" x1="479.82" y1="194.664" x2="437.139" y2="116.436" gradientUnits="userSpaceOnUse">
<stop stop-color="#DECEA5"/>
<stop offset="1" stop-color="#CD9740"/>
</linearGradient>
<linearGradient id="paint24_linear_40_14" x1="471.395" y1="249.101" x2="445.185" y2="163.929" gradientUnits="userSpaceOnUse">
<stop stop-color="#DECEA5"/>
<stop offset="1" stop-color="#CD9740"/>
</linearGradient>
<linearGradient id="paint25_linear_40_14" x1="495.942" y1="234.124" x2="469.732" y2="148.952" gradientUnits="userSpaceOnUse">
<stop stop-color="#DECEA5"/>
<stop offset="1" stop-color="#CD9740"/>
</linearGradient>
<linearGradient id="paint26_linear_40_14" x1="476.257" y1="286.113" x2="467.692" y2="197.412" gradientUnits="userSpaceOnUse">
<stop stop-color="#DECEA5"/>
<stop offset="1" stop-color="#CD9740"/>
</linearGradient>
<linearGradient id="paint27_linear_40_14" x1="503.31" y1="276.373" x2="494.745" y2="187.672" gradientUnits="userSpaceOnUse">
<stop stop-color="#DECEA5"/>
<stop offset="1" stop-color="#CD9740"/>
</linearGradient>
<linearGradient id="paint28_linear_40_14" x1="473.586" y1="323.401" x2="483.267" y2="234.814" gradientUnits="userSpaceOnUse">
<stop stop-color="#DECEA5"/>
<stop offset="1" stop-color="#CD9740"/>
</linearGradient>
<linearGradient id="paint29_linear_40_14" x1="502.057" y1="319.375" x2="511.738" y2="230.788" gradientUnits="userSpaceOnUse">
<stop stop-color="#DECEA5"/>
<stop offset="1" stop-color="#CD9740"/>
</linearGradient>
<linearGradient id="paint30_linear_40_14" x1="462.104" y1="359.445" x2="491.861" y2="275.446" gradientUnits="userSpaceOnUse">
<stop stop-color="#DECEA5"/>
<stop offset="1" stop-color="#CD9740"/>
</linearGradient>
<linearGradient id="paint31_linear_40_14" x1="490.739" y1="362.062" x2="520.496" y2="278.063" gradientUnits="userSpaceOnUse">
<stop stop-color="#DECEA5"/>
<stop offset="1" stop-color="#CD9740"/>
</linearGradient>
<linearGradient id="paint32_linear_40_14" x1="446.893" y1="392.043" x2="490.277" y2="314.203" gradientUnits="userSpaceOnUse">
<stop stop-color="#DECEA5"/>
<stop offset="1" stop-color="#CD9740"/>
</linearGradient>
<linearGradient id="paint33_linear_40_14" x1="474.689" y1="399.41" x2="518.072" y2="321.569" gradientUnits="userSpaceOnUse">
<stop stop-color="#DECEA5"/>
<stop offset="1" stop-color="#CD9740"/>
</linearGradient>
<linearGradient id="paint34_linear_40_14" x1="423.523" y1="421.154" x2="481.66" y2="353.616" gradientUnits="userSpaceOnUse">
<stop stop-color="#DECEA5"/>
<stop offset="1" stop-color="#CD9740"/>
</linearGradient>
<linearGradient id="paint35_linear_40_14" x1="449.272" y1="433.955" x2="507.409" y2="366.417" gradientUnits="userSpaceOnUse">
<stop stop-color="#DECEA5"/>
<stop offset="1" stop-color="#CD9740"/>
</linearGradient>
<linearGradient id="paint36_linear_40_14" x1="394.748" y1="445.016" x2="465.422" y2="390.735" gradientUnits="userSpaceOnUse">
<stop stop-color="#DECEA5"/>
<stop offset="1" stop-color="#CD9740"/>
</linearGradient>
<linearGradient id="paint37_linear_40_14" x1="417.349" y1="462.793" x2="488.023" y2="408.512" gradientUnits="userSpaceOnUse">
<stop stop-color="#DECEA5"/>
<stop offset="1" stop-color="#CD9740"/>
</linearGradient>
<linearGradient id="paint38_linear_40_14" x1="361.757" y1="462.485" x2="441.895" y2="423.509" gradientUnits="userSpaceOnUse">
<stop stop-color="#DECEA5"/>
<stop offset="1" stop-color="#CD9740"/>
</linearGradient>
<linearGradient id="paint39_linear_40_14" x1="380.325" y1="484.442" x2="460.464" y2="445.466" gradientUnits="userSpaceOnUse">
<stop stop-color="#DECEA5"/>
<stop offset="1" stop-color="#CD9740"/>
</linearGradient>
<linearGradient id="paint40_linear_40_14" x1="326.343" y1="473.481" x2="412.648" y2="451.282" gradientUnits="userSpaceOnUse">
<stop stop-color="#DECEA5"/>
<stop offset="1" stop-color="#CD9740"/>
</linearGradient>
<linearGradient id="paint41_linear_40_14" x1="340.156" y1="498.701" x2="426.461" y2="476.503" gradientUnits="userSpaceOnUse">
<stop stop-color="#DECEA5"/>
<stop offset="1" stop-color="#CD9740"/>
</linearGradient>
<linearGradient id="paint42_linear_40_14" x1="289.142" y1="476.605" x2="378.147" y2="472.198" gradientUnits="userSpaceOnUse">
<stop stop-color="#DECEA5"/>
<stop offset="1" stop-color="#CD9740"/>
</linearGradient>
<linearGradient id="paint43_linear_40_14" x1="297.606" y1="504.085" x2="386.611" y2="499.678" gradientUnits="userSpaceOnUse">
<stop stop-color="#DECEA5"/>
<stop offset="1" stop-color="#CD9740"/>
</linearGradient>
<linearGradient id="paint44_linear_40_14" x1="252.021" y1="472.193" x2="340.057" y2="486.007" gradientUnits="userSpaceOnUse">
<stop stop-color="#DECEA5"/>
<stop offset="1" stop-color="#CD9740"/>
</linearGradient>
<linearGradient id="paint45_linear_40_14" x1="254.712" y1="500.822" x2="342.749" y2="514.636" gradientUnits="userSpaceOnUse">
<stop stop-color="#DECEA5"/>
<stop offset="1" stop-color="#CD9740"/>
</linearGradient>
<linearGradient id="paint46_linear_40_14" x1="216.627" y1="460.323" x2="300.094" y2="491.541" gradientUnits="userSpaceOnUse">
<stop stop-color="#DECEA5"/>
<stop offset="1" stop-color="#CD9740"/>
</linearGradient>
<linearGradient id="paint47_linear_40_14" x1="213.511" y1="488.908" x2="296.978" y2="520.126" gradientUnits="userSpaceOnUse">
<stop stop-color="#DECEA5"/>
<stop offset="1" stop-color="#CD9740"/>
</linearGradient>
<linearGradient id="paint48_linear_40_14" x1="184.456" y1="441.829" x2="260.091" y2="488.953" gradientUnits="userSpaceOnUse">
<stop stop-color="#DECEA5"/>
<stop offset="1" stop-color="#CD9740"/>
</linearGradient>
<linearGradient id="paint49_linear_40_14" x1="175.742" y1="469.231" x2="251.377" y2="516.355" gradientUnits="userSpaceOnUse">
<stop stop-color="#DECEA5"/>
<stop offset="1" stop-color="#CD9740"/>
</linearGradient>
<linearGradient id="paint50_linear_40_14" x1="156.517" y1="417.068" x2="221.142" y2="478.427" gradientUnits="userSpaceOnUse">
<stop stop-color="#DECEA5"/>
<stop offset="1" stop-color="#CD9740"/>
</linearGradient>
<linearGradient id="paint51_linear_40_14" x1="142.477" y1="442.161" x2="207.102" y2="503.52" gradientUnits="userSpaceOnUse">
<stop stop-color="#DECEA5"/>
<stop offset="1" stop-color="#CD9740"/>
</linearGradient>
<linearGradient id="paint52_linear_40_14" x1="134.086" y1="387.164" x2="184.86" y2="460.399" gradientUnits="userSpaceOnUse">
<stop stop-color="#DECEA5"/>
<stop offset="1" stop-color="#CD9740"/>
</linearGradient>
<linearGradient id="paint53_linear_40_14" x1="115.227" y1="408.871" x2="166.001" y2="482.106" gradientUnits="userSpaceOnUse">
<stop stop-color="#DECEA5"/>
<stop offset="1" stop-color="#CD9740"/>
</linearGradient>
<linearGradient id="paint54_linear_40_14" x1="118.242" y1="353.36" x2="153.268" y2="435.302" gradientUnits="userSpaceOnUse">
<stop stop-color="#DECEA5"/>
<stop offset="1" stop-color="#CD9740"/>
</linearGradient>
<linearGradient id="paint55_linear_40_14" x1="95.4111" y1="370.838" x2="130.436" y2="452.78" gradientUnits="userSpaceOnUse">
<stop stop-color="#DECEA5"/>
<stop offset="1" stop-color="#CD9740"/>
</linearGradient>
<linearGradient id="paint56_linear_40_14" x1="108.987" y1="317.452" x2="126.954" y2="404.735" gradientUnits="userSpaceOnUse">
<stop stop-color="#DECEA5"/>
<stop offset="1" stop-color="#CD9740"/>
</linearGradient>
<linearGradient id="paint57_linear_40_14" x1="83.1233" y1="330.021" x2="101.091" y2="417.305" gradientUnits="userSpaceOnUse">
<stop stop-color="#DECEA5"/>
<stop offset="1" stop-color="#CD9740"/>
</linearGradient>
<linearGradient id="paint58_linear_40_14" x1="107.678" y1="280.145" x2="107.744" y2="369.259" gradientUnits="userSpaceOnUse">
<stop stop-color="#DECEA5"/>
<stop offset="1" stop-color="#CD9740"/>
</linearGradient>
<linearGradient id="paint59_linear_40_14" x1="79.8176" y1="287.26" x2="79.8834" y2="376.374" gradientUnits="userSpaceOnUse">
<stop stop-color="#DECEA5"/>
<stop offset="1" stop-color="#CD9740"/>
</linearGradient>
<linearGradient id="paint60_linear_40_14" x1="113.893" y1="243.282" x2="95.8072" y2="330.541" gradientUnits="userSpaceOnUse">
<stop stop-color="#DECEA5"/>
<stop offset="1" stop-color="#CD9740"/>
</linearGradient>
<linearGradient id="paint61_linear_40_14" x1="85.168" y1="244.574" x2="67.082" y2="331.833" gradientUnits="userSpaceOnUse">
<stop stop-color="#DECEA5"/>
<stop offset="1" stop-color="#CD9740"/>
</linearGradient>
</defs>
</svg>